<svg width="2925" height="1160" viewBox="0 0 2925 1160" fill="none" xmlns="http://www.w3.org/2000/svg">
<circle cx="579.52" cy="580.341" r="579.52" fill="#FFB800"/>
<circle cx="579.517" cy="580.344" r="249.738" fill="white"/>
<circle cx="579.517" cy="580.344" r="249.738" fill="white"/>
<circle cx="579.517" cy="580.344" r="249.738" fill="#FFD356"/>
<circle cx="579.518" cy="580.338" r="83.246" fill="white"/>
<circle cx="579.518" cy="580.338" r="83.246" fill="white"/>
<circle cx="579.518" cy="580.338" r="83.246" fill="#FFB800"/>
<path d="M1360.73 552.576C1359.77 552.576 1359.29 551.974 1359.29 550.771V344.949H1312.53C1311.33 344.949 1310.73 344.347 1310.73 343.144L1311.09 302.702C1311.09 301.739 1311.57 301.257 1312.53 301.257H1449.21C1450.41 301.257 1451.01 301.739 1451.01 302.702V343.144C1451.01 344.347 1450.53 344.949 1449.57 344.949H1402.45L1402.81 550.771C1402.81 551.974 1402.33 552.576 1401.37 552.576H1360.73Z" fill="#FFB800"/>
<path d="M1470.21 552.576C1469.25 552.576 1468.77 551.974 1468.77 550.771L1469.13 302.702C1469.13 301.739 1469.73 301.257 1470.93 301.257H1510.85C1512.05 301.257 1512.65 301.739 1512.65 302.702L1512.29 400.918H1566.24V302.702C1566.24 301.739 1566.72 301.257 1567.68 301.257H1607.6C1608.8 301.257 1609.4 301.739 1609.4 302.702L1610.12 550.771C1610.12 551.974 1609.52 552.576 1608.32 552.576H1568.04C1566.84 552.576 1566.24 551.974 1566.24 550.771V444.61H1512.29V550.771C1512.29 551.974 1511.81 552.576 1510.85 552.576H1470.21Z" fill="#FFB800"/>
<path d="M1640.91 552.576C1639.95 552.576 1639.47 551.974 1639.47 550.771L1639.83 302.702C1639.83 301.739 1640.31 301.257 1641.27 301.257H1756.73C1757.69 301.257 1758.17 301.859 1758.17 303.063V343.505C1758.17 344.468 1757.69 344.949 1756.73 344.949H1682.99V401.279H1756.73C1757.69 401.279 1758.17 401.761 1758.17 402.724L1758.53 443.527C1758.53 444.49 1758.05 444.971 1757.09 444.971H1682.99V508.162H1757.09C1758.05 508.162 1758.53 508.764 1758.53 509.968V551.132C1758.53 552.095 1758.05 552.576 1757.09 552.576H1640.91Z" fill="#FFB800"/>
<path d="M1953.75 557.735C1935.26 557.735 1918.47 553.092 1903.4 543.807C1888.33 534.522 1876.17 522.141 1866.92 506.666C1858.01 490.847 1853.56 473.308 1853.56 454.05V290.528C1853.56 271.957 1858.01 254.935 1866.92 239.459C1876.17 223.64 1888.33 211.088 1903.4 201.803C1918.81 192.518 1935.6 187.875 1953.75 187.875C1972.59 187.875 1989.55 192.518 2004.62 201.803C2020.04 210.744 2032.2 222.952 2041.1 238.428C2050.01 253.903 2054.46 271.27 2054.46 290.528V314.257C2054.46 315.632 2053.61 316.32 2051.89 316.32H1994.35C1992.98 316.32 1992.29 315.632 1992.29 314.257V294.655C1992.29 281.587 1988.52 270.754 1980.99 262.156C1973.79 253.559 1964.72 249.26 1953.75 249.26C1943.82 249.26 1934.91 253.387 1927.04 261.641C1919.5 269.894 1915.73 279.523 1915.73 290.528V454.05C1915.73 465.399 1919.5 475.2 1927.04 483.453C1934.57 491.363 1943.48 495.318 1953.75 495.318C1964.72 495.318 1973.79 491.363 1980.99 483.453C1988.52 475.544 1992.29 465.743 1992.29 454.05V428.774H1956.32C1954.61 428.774 1953.75 427.914 1953.75 426.195V368.42C1953.75 366.701 1954.61 365.841 1956.32 365.841H2052.41C2053.78 365.841 2054.46 366.701 2054.46 368.42V454.05C2054.46 473.308 2049.84 490.847 2040.59 506.666C2031.68 522.141 2019.69 534.522 2004.62 543.807C1989.55 553.092 1972.59 557.735 1953.75 557.735Z" fill="#FFB800"/>
<path d="M2093.1 552.576C2091.73 552.576 2091.04 551.716 2091.04 549.997L2092.07 195.613C2092.07 194.237 2092.76 193.549 2094.13 193.549H2197.92C2216.42 193.549 2233.37 198.192 2248.79 207.477C2264.54 216.418 2277.05 228.627 2286.3 244.102C2295.54 259.233 2300.17 276.428 2300.17 295.686C2300.17 308.41 2298.29 319.931 2294.52 330.248C2290.75 340.221 2286.3 348.818 2281.16 356.04C2276.02 362.918 2271.4 368.076 2267.28 371.515C2285.78 392.149 2295.03 416.394 2295.03 444.249L2295.54 549.997C2295.54 551.716 2294.69 552.576 2292.98 552.576H2234.91C2233.54 552.576 2232.86 552.06 2232.86 551.029V444.249C2232.86 431.869 2228.41 421.208 2219.5 412.267C2210.94 402.982 2200.32 398.339 2187.64 398.339H2153.73L2153.22 549.997C2153.22 551.716 2152.53 552.576 2151.16 552.576H2093.1ZM2153.73 336.438H2197.92C2208.54 336.438 2217.96 332.483 2226.18 324.573C2234.4 316.664 2238.51 307.035 2238.51 295.686C2238.51 284.682 2234.4 275.224 2226.18 267.315C2218.3 259.405 2208.88 255.45 2197.92 255.45H2153.73V336.438Z" fill="#FFB800"/>
<path d="M2340.98 552.576C2339.61 552.576 2338.92 551.716 2338.92 549.997L2339.44 195.613C2339.44 194.237 2340.12 193.549 2341.49 193.549H2506.43C2507.8 193.549 2508.48 194.409 2508.48 196.128V253.903C2508.48 255.279 2507.8 255.966 2506.43 255.966H2401.09V336.438H2506.43C2507.8 336.438 2508.48 337.126 2508.48 338.501L2509 396.792C2509 398.167 2508.31 398.855 2506.94 398.855H2401.09V489.127H2506.94C2508.31 489.127 2509 489.987 2509 491.707V550.513C2509 551.888 2508.31 552.576 2506.94 552.576H2340.98Z" fill="#FFB800"/>
<path d="M2532.2 549.997L2595.91 195.613C2596.25 194.237 2597.11 193.549 2598.48 193.549H2672.99C2674.36 193.549 2675.21 194.237 2675.55 195.613L2736.7 549.997C2737.04 551.716 2736.36 552.576 2734.64 552.576H2677.61C2676.24 552.576 2675.38 551.716 2675.04 549.997L2669.39 512.34H2599.51L2593.86 549.997C2593.51 551.716 2592.66 552.576 2591.29 552.576H2534.25C2532.88 552.576 2532.2 551.716 2532.2 549.997ZM2609.79 457.145H2659.11L2638.05 312.193L2634.96 293.107L2632.91 312.193L2609.79 457.145Z" fill="#FFB800"/>
<path d="M2795.74 552.576C2794.37 552.576 2793.68 551.716 2793.68 549.997V255.966H2726.89C2725.18 255.966 2724.32 255.107 2724.32 253.387L2724.83 195.613C2724.83 194.237 2725.52 193.549 2726.89 193.549H2922.14C2923.85 193.549 2924.71 194.237 2924.71 195.613V253.387C2924.71 255.107 2924.02 255.966 2922.65 255.966H2855.34L2855.86 549.997C2855.86 551.716 2855.17 552.576 2853.8 552.576H2795.74Z" fill="#FFB800"/>
<path d="M1332.98 965.251C1331.61 965.251 1330.93 964.391 1330.93 962.672L1331.95 608.287C1331.95 606.912 1332.64 606.224 1334.01 606.224H1396.69C1398.06 606.224 1399.26 606.912 1400.29 608.287L1447.05 676.379L1493.81 608.287C1494.83 606.912 1496.03 606.224 1497.4 606.224H1560.6C1561.97 606.224 1562.66 606.912 1562.66 608.287L1563.69 962.672C1563.69 964.391 1563 965.251 1561.63 965.251H1503.57C1502.2 965.251 1501.51 964.391 1501.51 962.672L1501 699.591L1447.05 778L1393.61 699.591L1393.1 962.672C1393.1 964.391 1392.41 965.251 1391.04 965.251H1332.98Z" fill="#FFB800"/>
<path d="M1654.69 965.251C1653.66 965.251 1653.15 964.563 1653.15 963.187L1653.66 816.688L1584.81 608.287C1584.47 606.912 1584.98 606.224 1586.35 606.224H1643.38C1645.1 606.224 1646.12 606.912 1646.47 608.287L1684.49 747.049L1723.03 608.287C1723.37 606.912 1724.23 606.224 1725.6 606.224H1783.14C1784.51 606.224 1785.03 606.912 1784.68 608.287L1715.32 814.625L1715.83 963.187C1715.83 964.563 1715.15 965.251 1713.78 965.251H1654.69Z" fill="#FFB800"/>
<path d="M1890.45 970.409C1871.95 970.409 1854.99 965.767 1839.58 956.481C1824.51 946.852 1812.35 934.3 1803.1 918.825C1794.19 903.006 1789.74 885.639 1789.74 866.725V842.996C1789.74 841.276 1790.59 840.417 1792.31 840.417H1849.86C1851.23 840.417 1851.91 841.276 1851.91 842.996V866.725C1851.91 878.073 1855.68 887.874 1863.21 896.128C1870.75 904.037 1879.83 907.992 1890.45 907.992C1901.07 907.992 1910.14 903.865 1917.68 895.612C1925.22 887.358 1928.98 877.729 1928.98 866.725C1928.98 854.001 1920.76 842.996 1904.32 833.711C1898.84 830.616 1890.28 825.801 1878.63 819.267C1866.98 812.733 1856.02 806.543 1845.74 800.697C1826.9 789.692 1812.86 775.936 1803.61 759.429C1794.71 742.578 1790.25 723.664 1790.25 702.687C1790.25 683.428 1794.88 666.234 1804.13 651.102C1813.37 635.627 1825.53 623.419 1840.61 614.477C1856.02 605.536 1872.63 601.065 1890.45 601.065C1908.6 601.065 1925.22 605.708 1940.29 614.993C1955.7 623.934 1967.86 636.143 1976.77 651.618C1986.02 666.749 1990.64 683.772 1990.64 702.687V744.986C1990.64 746.361 1989.96 747.049 1988.59 747.049H1931.04C1929.67 747.049 1928.98 746.361 1928.98 744.986L1928.47 702.687C1928.47 690.65 1924.7 680.849 1917.17 673.283C1909.63 665.718 1900.72 661.935 1890.45 661.935C1879.83 661.935 1870.75 666.062 1863.21 674.315C1855.68 682.225 1851.91 691.682 1851.91 702.687C1851.91 714.035 1854.31 723.492 1859.1 731.058C1863.9 738.624 1872.63 745.845 1885.31 752.723C1887.02 753.755 1890.28 755.646 1895.07 758.398C1900.21 760.805 1905.69 763.728 1911.51 767.167C1917.34 770.262 1922.48 773.013 1926.93 775.42C1931.72 777.828 1934.64 779.375 1935.66 780.063C1952.79 789.692 1966.32 801.557 1976.26 815.656C1986.19 829.412 1991.16 846.435 1991.16 866.725C1991.16 886.327 1986.53 904.037 1977.28 919.857C1968.38 935.332 1956.22 947.712 1940.8 956.997C1925.73 965.939 1908.94 970.409 1890.45 970.409Z" fill="#FFB800"/>
<path d="M2075.76 965.251C2074.39 965.251 2073.71 964.391 2073.71 962.672V668.641H2006.91C2005.2 668.641 2004.34 667.781 2004.34 666.062L2004.86 608.287C2004.86 606.912 2005.54 606.224 2006.91 606.224H2202.16C2203.88 606.224 2204.73 606.912 2204.73 608.287V666.062C2204.73 667.781 2204.05 668.641 2202.68 668.641H2135.37L2135.88 962.672C2135.88 964.391 2135.2 965.251 2133.83 965.251H2075.76Z" fill="#FFB800"/>
<path d="M2232.17 965.251C2230.8 965.251 2230.11 964.391 2230.11 962.672L2230.62 608.287C2230.62 606.912 2231.31 606.224 2232.68 606.224H2397.62C2398.99 606.224 2399.67 607.084 2399.67 608.803V666.578C2399.67 667.953 2398.99 668.641 2397.62 668.641H2292.28V749.112H2397.62C2398.99 749.112 2399.67 749.8 2399.67 751.176L2400.18 809.466C2400.18 810.842 2399.5 811.529 2398.13 811.529H2292.28V901.802H2398.13C2399.5 901.802 2400.18 902.662 2400.18 904.381V963.187C2400.18 964.563 2399.5 965.251 2398.13 965.251H2232.17Z" fill="#FFB800"/>
<path d="M2447.93 965.251C2446.56 965.251 2445.87 964.391 2445.87 962.672L2446.9 608.287C2446.9 606.912 2447.59 606.224 2448.96 606.224H2552.75C2571.25 606.224 2588.2 610.866 2603.62 620.152C2619.37 629.093 2631.88 641.301 2641.13 656.776C2650.37 671.908 2655 689.103 2655 708.361C2655 721.085 2653.12 732.605 2649.35 742.922C2645.58 752.895 2641.13 761.493 2635.99 768.714C2630.85 775.592 2626.23 780.751 2622.11 784.19C2640.61 804.823 2649.86 829.068 2649.86 856.924L2650.37 962.672C2650.37 964.391 2649.52 965.251 2647.81 965.251H2589.74C2588.37 965.251 2587.69 964.735 2587.69 963.703V856.924C2587.69 844.543 2583.24 833.883 2574.33 824.941C2565.77 815.656 2555.15 811.014 2542.47 811.014H2508.56L2508.05 962.672C2508.05 964.391 2507.36 965.251 2505.99 965.251H2447.93ZM2508.56 749.112H2552.75C2563.37 749.112 2572.79 745.158 2581.01 737.248C2589.23 729.338 2593.34 719.709 2593.34 708.361C2593.34 697.356 2589.23 687.899 2581.01 679.989C2573.13 672.08 2563.71 668.125 2552.75 668.125H2508.56V749.112Z" fill="#FFB800"/>
<path d="M2725.98 965.251C2724.95 965.251 2724.44 964.563 2724.44 963.187L2724.95 816.688L2656.1 608.287C2655.76 606.912 2656.27 606.224 2657.64 606.224H2714.68C2716.39 606.224 2717.42 606.912 2717.76 608.287L2755.78 747.049L2794.32 608.287C2794.66 606.912 2795.52 606.224 2796.89 606.224H2854.44C2855.81 606.224 2856.32 606.912 2855.98 608.287L2786.61 814.625L2787.13 963.187C2787.13 964.563 2786.44 965.251 2785.07 965.251H2725.98Z" fill="#FFB800"/>
</svg>
